<svg width="15" height="15" viewBox="0 0 15 15" fill="none" xmlns="http://www.w3.org/2000/svg">
<path fill-rule="evenodd" clip-rule="evenodd" d="M12.5229 3.93231C11.6536 3.71684 11.0092 2.93138 11.0092 1.99541C11.0092 0.893377 11.9026 0 13.0046 0C14.1066 0 15 0.893377 15 1.99541C15 2.91816 14.3737 3.69461 13.5229 3.92283V14.3121H12.5229V3.93231ZM7.01831 0.275391L7.01831 9.00358C6.14895 9.21905 5.50454 10.0045 5.50454 10.9405C5.50454 11.8765 6.14895 12.6619 7.01831 12.8774V14.3121H8.01831V12.8679C8.86903 12.6397 9.49536 11.8632 9.49536 10.9405C9.49536 10.0177 8.86903 9.24128 8.01831 9.01306V0.275391L7.01831 0.275391ZM1.51367 3.2238V0.275391L2.51367 0.275391V3.23327C3.36439 3.4615 3.99072 4.23795 3.99072 5.1607C3.99072 6.08344 3.36439 6.85989 2.51367 7.08812V14.3121H1.51367V7.09759C0.644315 6.88213 -0.000102997 6.09667 -0.000102997 5.1607C-0.000102997 4.22473 0.644315 3.43927 1.51367 3.2238Z" fill="#516F90"/>
</svg>
